<svg width="28" height="25" viewBox="0 0 28 25" fill="none" xmlns="http://www.w3.org/2000/svg">
<path d="M22.5608 17.8056L18.5885 13.8333C18.7938 13.5049 18.9529 13.12 19.0658 12.6786C19.1787 12.2372 19.2351 11.7907 19.2351 11.3391C19.2351 9.88158 18.727 8.64473 17.7109 7.62856C16.6947 6.61239 15.4579 6.10431 14.0003 6.10431C13.5487 6.10431 13.1073 6.15563 12.6762 6.25828C12.2451 6.36092 11.8551 6.52515 11.5061 6.75096L8.11888 3.33295C8.83738 3.00449 9.75603 2.71709 10.8748 2.47075C11.9937 2.2244 13.0868 2.10123 14.1543 2.10123C16.9257 2.10123 19.4815 2.86079 21.8217 4.37991C24.162 5.89902 25.948 7.94162 27.1797 10.5077C27.2413 10.6103 27.2823 10.7335 27.3029 10.8772C27.3234 11.0209 27.3337 11.1749 27.3337 11.3391C27.3337 11.5033 27.3234 11.6624 27.3029 11.8164C27.2823 11.9704 27.2413 12.0987 27.1797 12.2013C26.6459 13.3304 25.989 14.3671 25.2089 15.3114C24.4289 16.2557 23.5461 17.0871 22.5608 17.8056ZM23.6693 24.0874L19.1735 19.684C18.455 19.9714 17.6442 20.1921 16.7409 20.346C15.8376 20.5 14.9241 20.577 14.0003 20.577C11.1674 20.577 8.57051 19.8174 6.20972 18.2983C3.84893 16.7792 2.05267 14.7366 0.820957 12.1705C0.759371 12.0473 0.718314 11.919 0.697785 11.7856C0.677256 11.6522 0.666992 11.5033 0.666992 11.3391C0.666992 11.1749 0.682389 11.0158 0.713182 10.8618C0.743974 10.7079 0.7799 10.5795 0.820957 10.4769C1.25206 9.55312 1.8012 8.65499 2.46838 7.78252C3.13556 6.91006 3.92078 6.08378 4.82404 5.30369L1.59078 2.07044C1.40602 1.88568 1.31364 1.67013 1.31364 1.42379C1.31364 1.17744 1.40602 0.961894 1.59078 0.777136C1.77554 0.592379 1.99622 0.5 2.25283 0.5C2.50943 0.5 2.73012 0.592379 2.91488 0.777136L24.9626 22.8249C25.1268 22.9891 25.2089 23.1892 25.2089 23.4253C25.2089 23.6614 25.1268 23.8718 24.9626 24.0566C24.7984 24.2619 24.588 24.3645 24.3313 24.3645C24.0747 24.3645 23.8541 24.2721 23.6693 24.0874ZM14.0003 16.5739C14.2877 16.5739 14.5957 16.5482 14.9241 16.4969C15.2526 16.4456 15.5297 16.3686 15.7555 16.266L9.07346 9.58391C8.97082 9.83025 8.89383 10.1074 8.84251 10.4153C8.79119 10.7232 8.76553 11.0312 8.76553 11.3391C8.76553 12.8172 9.27874 14.0591 10.3052 15.065C11.3316 16.071 12.5633 16.5739 14.0003 16.5739ZM17.2336 12.4784L12.861 8.10585C14.1338 7.63369 15.3142 7.88004 16.4022 8.84488C17.4902 9.80972 17.7673 11.0209 17.2336 12.4784Z" fill="#9FA0A7"/>
</svg>
