<svg width="36" height="17" viewBox="0 0 36 17" fill="none" xmlns="http://www.w3.org/2000/svg">
<path d="M6.1424 3.0711C6.1424 4.7673 4.7674 6.1423 3.0712 6.1423C1.375 6.1423 0 4.7673 0 3.0711C0 1.375 1.375 0 3.0712 0C4.7674 0 6.1424 1.375 6.1424 3.0711Z" fill="#202020"/>
<path d="M26.6858 3.0711C26.6858 4.7673 25.3108 6.1423 23.6147 6.1423C21.9185 6.1423 20.5435 4.7673 20.5435 3.0711C20.5435 1.375 21.9185 0 23.6147 0C25.3108 0 26.6858 1.375 26.6858 3.0711Z" fill="#202020"/>
<path d="M18.9344 15.8996C19.9915 16.4162 21.2793 16.0182 21.8552 14.9771C22.4312 13.9359 22.0839 12.6335 21.0845 12.0126L20.9857 11.9547C13.9578 8.0671 7.2063 10.2031 4.4193 11.9559L4.2896 12.0391L4.1953 12.1042C3.2444 12.7971 2.9939 14.1216 3.6449 15.1175C4.296 16.1135 5.61 16.4156 6.6261 15.8224L6.72329 15.7622L6.8055 15.7097C8.5803 14.598 13.5734 12.9373 18.8329 15.8466L18.9344 15.8996Z" fill="#202020"/>
<path d="M32.05 11.1642C30.4601 10.3366 29.6614 8.49551 28.9829 6.16461C28.8907 5.84771 29.1302 5.53201 29.4601 5.54201C31.0162 5.58911 34.384 5.88821 35.295 7.78561C36.377 10.038 34.213 12.2904 32.05 11.1642Z" fill="#3A78A6"/>
</svg>
