<svg width="122" height="122" viewBox="0 0 122 122" fill="none" xmlns="http://www.w3.org/2000/svg">
<mask id="mask0_2003_17" style="mask-type:alpha" maskUnits="userSpaceOnUse" x="0" y="0" width="122" height="122">
<path d="M122 61C122 94.689 94.689 122 61 122C27.3106 122 0 94.689 0 61C0 27.3106 27.3106 0 61 0C94.689 0 122 27.3106 122 61Z" fill="#70ACDE"/>
</mask>
<g mask="url(#mask0_2003_17)">
<path d="M60.8703 122.145C94.5597 122.145 121.87 94.8341 121.87 61.1447C121.87 27.4553 94.5597 0.144592 60.8703 0.144592C27.1809 0.144592 -0.129791 27.4553 -0.129791 61.1447C-0.129791 94.8341 27.1809 122.145 60.8703 122.145Z" fill="#70ACDE"/>
<path d="M60.8703 122.145C94.5597 122.145 121.87 94.8341 121.87 61.1447C121.87 27.4553 94.5597 0.144592 60.8703 0.144592C27.1809 0.144592 -0.129791 27.4553 -0.129791 61.1447C-0.129791 94.8341 27.1809 122.145 60.8703 122.145Z" fill="url(#paint0_linear_2003_17)" fill-opacity="0.2"/>
<path d="M-0.792693 5.8996C15.0207 -7.9144 37.5344 -8.01541 49.493 5.67399C58.3507 15.8137 58.9325 30.6751 52.2126 43.3143C52.0923 43.5406 52.1273 43.8186 52.2959 44.0116C58.2007 50.7711 56.6577 61.7803 48.8495 68.6013C41.0412 75.422 29.9247 75.472 24.0198 68.7128C22.4723 66.9414 20.2507 65.6989 17.9025 65.8367C8.08311 66.4128 -1.36129 63.0378 -7.77229 55.699C-19.7308 42.0096 -16.606 19.7137 -0.792693 5.8996Z" fill="#99E587"/>
<path d="M89.318 16.5418C96.364 15.0258 103.14 18.7416 104.452 24.8413C105.765 30.941 101.117 37.1147 94.071 38.6308C93.011 38.8588 91.957 38.9684 90.928 38.9694C88.619 38.9717 86.283 39.5054 84.091 40.2305C80.787 41.3235 77.248 40.633 75.08 38.1511C72.054 34.6864 72.844 29.0433 76.847 25.5471C77.018 25.3972 77.193 25.2538 77.37 25.1167C78.797 24.0144 80.141 22.7517 81.278 21.3524C83.161 19.0353 85.969 17.2624 89.318 16.5418Z" fill="#99E587"/>
<path d="M77.695 65.6369C86.122 63.8236 94.444 69.2799 96.283 77.824C96.284 77.829 96.287 77.834 96.292 77.837C99.449 79.712 101.78 82.679 102.566 86.33C103.775 91.952 100.978 97.601 95.954 100.843C95.93 100.859 95.933 100.895 95.959 100.907C95.986 100.918 96.002 100.947 95.977 100.962C94.736 101.697 68.6375 116.923 54.172 105.143C51.5578 103.266 49.6547 100.573 48.96 97.344C47.3456 89.841 52.8687 82.288 61.2962 80.475C61.3138 80.471 61.3314 80.467 61.3489 80.464C63.5874 79.989 65.4778 78.237 66.1905 76.063C67.8687 70.942 72.102 66.8402 77.695 65.6369Z" fill="#99E587"/>
</g>
<defs>
<linearGradient id="paint0_linear_2003_17" x1="51.4909" y1="28.6718" x2="96.999" y2="108.141" gradientUnits="userSpaceOnUse">
<stop stop-color="white"/>
<stop offset="1" stop-color="#2887D7"/>
</linearGradient>
</defs>
</svg>
