<svg width="16" height="20" viewBox="0 0 16 20" fill="none" xmlns="http://www.w3.org/2000/svg">
<path d="M9.50379 2.12654C9.50379 2.98709 8.80617 3.68471 7.94561 3.68471C7.08505 3.68471 6.38743 2.98709 6.38743 2.12654C6.38743 1.26598 7.08505 0.568359 7.94561 0.568359C8.80617 0.568359 9.50379 1.26598 9.50379 2.12654Z" fill="#707177"/>
<path d="M7.94725 2.12651C11.0694 2.12676 13.6133 4.59842 13.7303 7.69198C13.7304 7.69358 13.7317 7.69487 13.7333 7.69487C13.735 7.69487 13.7363 7.6962 13.7363 7.69785V11.074C13.7363 11.6934 14.4543 12.188 14.8017 12.7007L15.8135 14.1949C16.2627 14.8588 15.7869 15.7552 14.9853 15.7554H1.01463C0.212752 15.7554 -0.262971 14.8589 0.186507 14.1949L1.19725 12.7007C1.52701 12.2139 2.15916 11.7477 2.15916 11.1597V7.69785C2.15916 7.6962 2.1605 7.69487 2.16215 7.69487C2.16375 7.69487 2.16507 7.69358 2.16513 7.69198C2.28224 4.59842 4.82509 2.12672 7.94725 2.12651Z" fill="#707177"/>
<path d="M10.3513 17.0197C10.3511 18.3518 9.27127 19.4318 7.93919 19.4318C6.6903 19.4317 5.66318 18.4822 5.53978 17.2658L5.52708 17.0197H10.3513Z" fill="#707177"/>
</svg>
